<svg xmlns="http://www.w3.org/2000/svg" viewBox="0 0 64 64" role="img" aria-label="URP Studio favicon">
  <defs>
    <linearGradient id="g" x1="0" y1="0" x2="1" y2="1">
      <stop offset="0%" stop-color="#2f7df4" />
      <stop offset="100%" stop-color="#14b8a6" />
    </linearGradient>
  </defs>
  <rect x="4" y="4" width="56" height="56" rx="14" fill="#101827" />
  <path d="M20 18v14c0 5 3 8 8 8s8-3 8-8V18h-5v13c0 3-1 5-3 5s-3-2-3-5V18h-5z" fill="url(#g)" />
  <path d="M41 18h9c5 0 8 3 8 8 0 4-2 6-5 7l6 13h-6l-5-11h-2v11h-5V18zm5 5v7h4c2 0 3-1 3-3s-1-4-3-4h-4z" fill="#f8fafc" transform="translate(-3 0) scale(0.82)" />
  <circle cx="51" cy="50" r="5" fill="#14b8a6" />
</svg>
